<?xml version="1.0" encoding="utf-8"?>
<!-- Generator: Adobe Illustrator 16.0.0, SVG Export Plug-In . SVG Version: 6.00 Build 0)  -->
<!DOCTYPE svg PUBLIC "-//W3C//DTD SVG 1.1//EN" "http://www.w3.org/Graphics/SVG/1.1/DTD/svg11.dtd">
<svg version="1.1" id="Слой_1" xmlns="http://www.w3.org/2000/svg" xmlns:xlink="http://www.w3.org/1999/xlink" x="0px" y="0px"
	 width="26px" height="36px" viewBox="9 13 26 36" enable-background="new 9 13 26 36" xml:space="preserve">
<g>
	<g>
		<g>
			<defs>
				<rect id="SVGID_1_" x="9" y="13" width="26" height="36"/>
			</defs>
			<clipPath id="SVGID_2_">
				<use xlink:href="#SVGID_1_"  overflow="visible"/>
			</clipPath>
			<path clip-path="url(#SVGID_2_)" fill="#5FC7AE" d="M22,13c-7.17,0-13,5.786-13,12.898c0,1.297,0.196,2.548,0.556,3.728
				c1.491,7.028,10.575,17.654,11.826,19.095C21.538,48.9,21.765,49,22,49c0.029,0,0.057,0,0.085-0.004
				c0.22-0.023,0.418-0.132,0.552-0.3l0.05-0.061c2.78-3.269,10.404-12.674,11.76-19.023C34.81,28.438,35,27.19,35,25.898
				C35,18.786,29.165,13,22,13 M22,31.098c-2.912,0-5.282-2.332-5.282-5.201c0-0.967,0.272-1.878,0.748-2.659
				c0.472-0.784,1.15-1.436,1.963-1.88c0.76-0.419,1.641-0.659,2.571-0.659c0.939,0,1.823,0.244,2.589,0.672
				c0.807,0.444,1.481,1.095,1.953,1.879c0.472,0.776,0.74,1.684,0.74,2.647C27.282,28.767,24.913,31.098,22,31.098"/>
		</g>
	</g>
</g>
</svg>
