<?xml version="1.0" encoding="utf-8"?>
<!-- Generator: Adobe Illustrator 16.0.0, SVG Export Plug-In . SVG Version: 6.00 Build 0)  -->
<!DOCTYPE svg PUBLIC "-//W3C//DTD SVG 1.1//EN" "http://www.w3.org/Graphics/SVG/1.1/DTD/svg11.dtd">
<svg version="1.1" id="Слой_1" xmlns="http://www.w3.org/2000/svg" xmlns:xlink="http://www.w3.org/1999/xlink" x="0px" y="0px"
	 width="44px" height="62px" viewBox="0 0 44 62" enable-background="new 0 0 44 62" xml:space="preserve">
<g>
	<g>
		<g>
			<defs>
				<rect id="SVGID_1_" width="44" height="62"/>
			</defs>
			<clipPath id="SVGID_2_">
				<use xlink:href="#SVGID_1_"  overflow="visible"/>
			</clipPath>
			<path clip-path="url(#SVGID_2_)" fill="#389DDF" d="M22,0C9.866,0,0,9.966,0,22.214c0,2.233,0.332,4.388,0.941,6.419
				C3.464,40.736,18.837,59.037,20.954,61.52C21.217,61.827,21.602,62,22,62c0.049,0,0.096,0,0.145-0.007
				c0.373-0.04,0.708-0.228,0.935-0.517l0.083-0.104c4.704-5.628,17.608-21.826,19.901-32.761C43.677,26.588,44,24.439,44,22.214
				C44,9.966,34.126,0,22,0 M22,31.169c-4.928,0-8.938-4.016-8.938-8.956c0-1.666,0.461-3.236,1.264-4.58
				c0.799-1.351,1.947-2.473,3.322-3.237c1.286-0.723,2.777-1.135,4.352-1.135c1.589,0,3.087,0.419,4.381,1.156
				c1.365,0.764,2.508,1.887,3.305,3.237c0.799,1.336,1.254,2.9,1.254,4.559C30.939,27.154,26.93,31.169,22,31.169"/>
		</g>
	</g>
</g>
</svg>
