<?xml version="1.0" encoding="utf-8"?>
<!-- Generator: Adobe Illustrator 16.0.0, SVG Export Plug-In . SVG Version: 6.00 Build 0)  -->
<!DOCTYPE svg PUBLIC "-//W3C//DTD SVG 1.1//EN" "http://www.w3.org/Graphics/SVG/1.1/DTD/svg11.dtd">
<svg version="1.1" id="Слой_1" xmlns="http://www.w3.org/2000/svg" xmlns:xlink="http://www.w3.org/1999/xlink" x="0px" y="0px"
	 width="26px" height="36px" viewBox="0 0 26 36" enable-background="new 0 0 26 36" xml:space="preserve">
<g>
	<g>
		<g>
			<g>
				<defs>
					<rect id="SVGID_1_" width="26" height="36"/>
				</defs>
				<clipPath id="SVGID_2_">
					<use xlink:href="#SVGID_1_"  overflow="visible"/>
				</clipPath>
				<path clip-path="url(#SVGID_2_)" fill="#A562AD" d="M13,0C5.83,0,0,5.786,0,12.898c0,1.297,0.196,2.547,0.556,3.728
					c1.491,7.028,10.575,17.654,11.826,19.095C12.538,35.9,12.766,36,13,36c0.029,0,0.057,0,0.085-0.004
					c0.22-0.023,0.418-0.132,0.552-0.301l0.051-0.061c2.779-3.269,10.403-12.674,11.76-19.023C25.811,15.438,26,14.189,26,12.898
					C26,5.786,20.165,0,13,0 M13,18.098c-2.912,0-5.282-2.332-5.282-5.201c0-0.967,0.272-1.877,0.748-2.658
					c0.472-0.784,1.15-1.437,1.964-1.881c0.76-0.418,1.641-0.658,2.57-0.658c0.939,0,1.823,0.244,2.589,0.672
					c0.808,0.443,1.481,1.095,1.953,1.879c0.472,0.775,0.74,1.684,0.74,2.646C18.282,15.768,15.913,18.098,13,18.098"/>
			</g>
		</g>
	</g>
</g>
</svg>
